<svg xmlns="http://www.w3.org/2000/svg" width="500" height="400" viewBox="0 0 500 400" role="img">
<rect width="500" height="400" fill="#ffffff"/>
<rect x="40" y="120" width="420" height="26" fill="#ececed"/>
<line x1="75" y1="120" x2="75" y2="146" stroke="#b7b7b7" stroke-width="1.0"/>
<line x1="110" y1="120" x2="110" y2="146" stroke="#b7b7b7" stroke-width="1.0"/>
<line x1="145" y1="120" x2="145" y2="146" stroke="#b7b7b7" stroke-width="1.0"/>
<line x1="180" y1="120" x2="180" y2="146" stroke="#b7b7b7" stroke-width="1.0"/>
<line x1="215" y1="120" x2="215" y2="146" stroke="#b7b7b7" stroke-width="1.0"/>
<line x1="250" y1="120" x2="250" y2="146" stroke="#b7b7b7" stroke-width="1.0"/>
<line x1="285" y1="120" x2="285" y2="146" stroke="#b7b7b7" stroke-width="1.0"/>
<line x1="320" y1="120" x2="320" y2="146" stroke="#b7b7b7" stroke-width="1.0"/>
<line x1="355" y1="120" x2="355" y2="146" stroke="#b7b7b7" stroke-width="1.0"/>
<line x1="390" y1="120" x2="390" y2="146" stroke="#b7b7b7" stroke-width="1.0"/>
<line x1="425" y1="120" x2="425" y2="146" stroke="#b7b7b7" stroke-width="1.0"/>
<rect x="40" y="170" width="140" height="150" fill="none" stroke="#57575c" stroke-width="2.0"/>
<rect x="56" y="202" width="108" height="86" fill="none" stroke="#b7b7b7" stroke-width="1.0" stroke-dasharray="4 3"/>
<rect x="56" y="186" width="90" height="20" fill="#57575c"/>
<text x="61" y="200" font-family="Helvetica,Arial,sans-serif" font-size="11" fill="#ffffff">creabb/column</text>
</svg>
